<svg width="24" height="24" viewBox="0 0 24 24" fill="none" xmlns="http://www.w3.org/2000/svg">
<circle cx="12" cy="12" r="12" fill="#FFDE59"/>
<path d="M7.68359 13.6841C7.68359 13.0956 7.79782 12.5129 8.01975 11.9692C8.24168 11.4256 8.56697 10.9316 8.97704 10.5155C9.38712 10.0994 9.87395 9.76929 10.4097 9.5441C10.9455 9.31891 11.5198 9.203 12.0997 9.203C12.6796 9.203 13.2539 9.31891 13.7897 9.54411C14.3255 9.7693 14.8123 10.0994 15.2224 10.5155C15.6324 10.9316 15.9577 11.4256 16.1797 11.9692C16.4016 12.5129 16.5158 13.0956 16.5158 13.6841L7.68359 13.6841Z" fill="#3DDB85"/>
<ellipse cx="9.86934" cy="11.9641" rx="0.490678" ry="0.497894" fill="white"/>
<ellipse cx="14.33" cy="11.9641" rx="0.490678" ry="0.497894" fill="white"/>
<g clip-path="url(#clip0_319_14)">
<path fill-rule="evenodd" clip-rule="evenodd" d="M12.0343 18.831C12.0778 18.831 12.1211 18.8306 12.1644 18.8297L11.4012 19.8987L12.2776 21.0905C12.1968 21.0927 12.1157 21.0938 12.0343 21.0938C9.26559 21.0938 6.79128 19.8134 5.15402 17.8038C5.12568 17.8047 5.09722 17.8052 5.06866 17.8052C3.6414 17.8052 2.48438 16.63 2.48438 15.1803C2.48438 14.4748 2.75842 13.8343 3.20428 13.3626C3.14096 12.9269 3.10817 12.4811 3.10817 12.0275C3.10817 10.5515 3.45541 9.15791 4.07146 7.92637L5.48357 7.79175L6.04365 8.98053C5.59086 9.89718 5.336 10.9321 5.336 12.0275C5.336 12.2106 5.34312 12.3921 5.35711 12.5716C6.64861 12.7173 7.65294 13.8297 7.65294 15.1803C7.65294 15.7495 7.47457 16.2764 7.17152 16.7064C8.39228 18.0149 10.1195 18.831 12.0343 18.831Z" fill="#5792F8"/>
<path fill-rule="evenodd" clip-rule="evenodd" d="M14.1914 3.22766C16.562 3.82519 18.5585 5.38512 19.7556 7.47562L19.1952 8.69793L17.8107 8.58084C17.0176 7.21241 15.7666 6.15061 14.2716 5.6127C13.8592 6.50602 12.9659 7.12471 11.9304 7.12471C10.9205 7.12471 10.0461 6.53647 9.62083 5.67895C8.17105 6.24791 6.96499 7.31448 6.20569 8.67243L5.67255 7.45918L4.22461 7.63347C5.37085 5.53622 7.31221 3.94916 9.63515 3.29237C10.0654 2.45029 10.9317 1.875 11.9304 1.875C12.9032 1.875 13.7504 2.42095 14.1914 3.22766Z" fill="#D55252"/>
<path fill-rule="evenodd" clip-rule="evenodd" d="M11.7793 19.9096L12.5113 18.8248C14.2725 18.699 15.8459 17.8816 16.9697 16.6383C16.6949 16.2213 16.5347 15.7198 16.5347 15.1803C16.5347 13.8715 17.4777 12.7865 18.7112 12.5879C18.7255 12.4066 18.7327 12.2233 18.7327 12.0383C18.7327 10.9002 18.4576 9.82739 17.9712 8.88471L19.3824 9.04247L19.9212 7.78845C20.5847 9.05604 20.9606 10.5026 20.9606 12.0383C20.9606 12.4525 20.9332 12.8601 20.8803 13.2595C21.3866 13.7387 21.7032 14.4219 21.7032 15.1803C21.7032 16.63 20.5462 17.8051 19.119 17.8051C19.0548 17.8051 18.9911 17.8027 18.9282 17.7981C17.4034 19.6786 15.1472 20.9245 12.6017 21.0866L11.7793 19.9096Z" fill="#6AAB77"/>
</g>
<defs>
<clipPath id="clip0_319_14">
<rect width="19.2188" height="19.2188" fill="white" transform="translate(2.48438 1.875)"/>
</clipPath>
</defs>
</svg>
