<svg width="32" height="32" viewBox="0 0 32 32" fill="none" xmlns="http://www.w3.org/2000/svg">
<circle cx="16" cy="16" r="16" fill="#FFDE59"/>
<path d="M10.24 19.0947C10.24 18.3101 10.3923 17.5332 10.6882 16.8083C10.9841 16.0834 11.4178 15.4248 11.9646 14.87C12.5114 14.3151 13.1605 13.875 13.8748 13.5748C14.5892 13.2745 15.3549 13.12 16.1281 13.12C16.9014 13.12 17.6671 13.2745 18.3814 13.5748C19.0958 13.8751 19.7449 14.3152 20.2917 14.87C20.8384 15.4248 21.2722 16.0834 21.5681 16.8083C21.864 17.5332 22.0163 18.3101 22.0163 19.0947L10.24 19.0947Z" fill="#3DDB85"/>
<ellipse cx="13.1542" cy="16.8014" rx="0.654238" ry="0.663859" fill="white"/>
<ellipse cx="19.1017" cy="16.8014" rx="0.654238" ry="0.663859" fill="white"/>
<g clip-path="url(#clip0_338_6)">
<path fill-rule="evenodd" clip-rule="evenodd" d="M15.9332 25.8078C15.9911 25.8078 16.049 25.8073 16.1066 25.8061L15.089 27.2315L16.2576 28.8205C16.1498 28.8234 16.0417 28.8249 15.9332 28.8249C12.2416 28.8249 8.94249 27.1177 6.75948 24.4382C6.72169 24.4395 6.68375 24.4401 6.64566 24.4401C4.74265 24.4401 3.19995 22.8732 3.19995 20.9403C3.19995 19.9996 3.56534 19.1456 4.15983 18.5167C4.0754 17.9357 4.03167 17.3413 4.03167 16.7365C4.03167 14.7685 4.49467 12.9104 5.31607 11.2684L7.19888 11.0889L7.94565 12.6739C7.34193 13.8961 7.00211 15.276 7.00211 16.7365C7.00211 16.9807 7.01162 17.2227 7.03027 17.4621C8.75226 17.6563 10.0914 19.1395 10.0914 20.9403C10.0914 21.6992 9.85354 22.4017 9.44948 22.9751C11.0772 24.7197 13.3801 25.8078 15.9332 25.8078Z" fill="#5792F8"/>
<path fill-rule="evenodd" clip-rule="evenodd" d="M18.8093 5.00349C21.9701 5.8002 24.6321 7.88011 26.2283 10.6674L25.481 12.2972L23.6351 12.1411C22.5775 10.3165 20.9095 8.90077 18.9162 8.18355C18.3664 9.37465 17.1754 10.1996 15.7946 10.1996C14.4482 10.1996 13.2822 9.41524 12.7152 8.27189C10.7822 9.0305 9.17411 10.4526 8.1617 12.2632L7.45086 10.6455L5.52026 10.8779C7.04858 8.08157 9.63706 5.9655 12.7343 5.08978C13.308 3.967 14.4631 3.19995 15.7946 3.19995C17.0917 3.19995 18.2214 3.92789 18.8093 5.00349Z" fill="#D55252"/>
<path fill-rule="evenodd" clip-rule="evenodd" d="M15.593 27.2461L16.569 25.7998C18.9173 25.632 21.0151 24.5421 22.5136 22.8844C22.1472 22.3284 21.9335 21.6597 21.9335 20.9404C21.9335 19.1954 23.1909 17.7487 24.8356 17.4839C24.8546 17.2422 24.8643 16.9978 24.8643 16.7511C24.8643 15.2336 24.4974 13.8032 23.8489 12.5463L25.7305 12.7566L26.4489 11.0846C27.3335 12.7747 27.8347 14.7034 27.8347 16.7511C27.8347 17.3033 27.7983 17.8468 27.7277 18.3793C28.4028 19.0182 28.8249 19.9292 28.8249 20.9404C28.8249 22.8733 27.2823 24.4402 25.3792 24.4402C25.2937 24.4402 25.2088 24.437 25.1248 24.4308C23.0918 26.9382 20.0836 28.5993 16.6895 28.8154L15.593 27.2461Z" fill="#6AAB77"/>
</g>
<defs>
<clipPath id="clip0_338_6">
<rect width="25.625" height="25.625" fill="white" transform="translate(3.19995 3.19995)"/>
</clipPath>
</defs>
</svg>
